<svg version="1.2" xmlns="http://www.w3.org/2000/svg" viewBox="0 0 695 401" width="695" height="401">
	<title>logo</title>
	<style>
		.s0 { opacity: 1;fill: #7451eb } 
	</style>
	<g id="Background">
		<path id="Path 0" class="s0" d="m282.8 215.5c-0.4 1.1-6.2 22.3-12.8 47-6.6 24.8-11.9 45.1-11.8 45.2 0.2 0.2 6.2 0.2 13.3 0l13-0.2c-0.8-72.9-1.3-93.1-1.7-92z"/>
		<path id="Path 1" class="s0" d="m219.1 260.8l-0.1 47.2c20.2 0 26-0.2 26-0.5 0-0.3-5.2-20-11.5-43.8-6.3-23.7-12.2-44.8-13-46.7-1.2-3.1-1.4 1.7-1.4 43.7z"/>
		<path id="Path 2" class="s0" d="m436.1 249.9l-0.1 45.1c17.3-0.5 19.2-1 23.8-3.5 2.9-1.7 6.6-4.8 8.2-7 1.5-2.2 3.7-6.3 4.8-9 1.1-2.8 2.5-8.3 3.1-12.3 0.6-3.9 1.1-10 1.1-13.5 0-3.4-0.5-9.1-1.1-12.7-0.6-3.6-1.8-8.8-2.8-11.5-0.9-2.8-3.1-7-4.9-9.5-1.9-2.7-5.2-5.7-8.4-7.5-4.5-2.5-6.6-3-14.4-3.3l-9.2-0.4z"/>
		<path id="Path 3" class="s0" d="m342.5 206.3c-0.3 0.6-0.4 20.8-0.3 44.7l0.3 43.5c11.1 0.4 16.1-0.1 19.3-1 3.6-1 6.5-2.8 9.4-5.8 2.3-2.3 5.2-6.5 6.5-9.2 1.2-2.8 2.9-8.1 3.8-12 0.8-3.9 1.5-11.3 1.5-16.5 0-5.2-0.7-12.7-1.5-16.5-0.9-3.9-2.6-9.3-3.8-12-1.3-2.8-4.1-6.8-6.2-9-2.4-2.5-6-4.8-9-5.8-3-1-8-1.7-12.3-1.7-4.9 0-7.4 0.4-7.7 1.2z"/>
		<path id="Path 4" fill-rule="evenodd" class="s0" d="m178.5 59.2c4.9-0.1 13.3 0.5 18.5 1.3 5.2 0.8 12.9 2.4 17 3.5 4.1 1.2 12.2 4.4 18 7.1 5.8 2.8 13.6 7.1 17.5 9.7 3.8 2.6 10.6 8.1 15 12.3 4.4 4.2 9.8 9.9 16 17.8l4.5-3.2c2.5-1.7 8.6-5 13.5-7.4 4.9-2.3 13.5-5.5 19-7 9.2-2.5 11.4-2.8 27.5-2.8 16 0 18.3 0.3 27.5 2.8 5.5 1.5 14.5 4.9 20 7.6 5.5 2.7 13.6 7.6 18 10.8 4.4 3.3 10.7 8.9 13.9 12.4 3.3 3.5 8.2 9.8 10.9 13.9 2.8 4.1 6.5 10.7 8.3 14.5 1.8 3.8 4.4 10.9 5.8 15.7 1.4 4.9 2.8 8.8 3.1 8.8 0.3 0 1.7-0.9 3.2-1.9 1.6-1.1 6.2-3.5 10.3-5.4 4.1-2 11-4.2 15.2-5.1 4.3-0.9 10.9-1.6 14.8-1.6 3.9 0 10.5 0.7 14.7 1.6 4.3 0.9 11.4 3.3 15.8 5.3 4.4 2.1 10.9 6 14.4 8.7 3.6 2.7 8.6 7.6 11.3 10.9 2.7 3.3 6.6 9.6 8.7 14 2.2 4.4 4.6 10.9 5.5 14.5 0.8 3.6 2 12.8 2.5 20.5 0.7 11.2 1.4 15.7 3.8 22.5 1.6 4.7 4.7 11.2 6.8 14.4 2.2 3.3 6.9 8.6 10.5 11.8 3.6 3.3 9.9 7.6 14 9.7 4.1 2.1 9.7 4.6 12.5 5.4 2.7 0.9 7 2.1 9.5 2.7 3.4 0.9 4.1 1.4 3 2.1-0.9 0.5-36.8 0.9-85.3 0.9-66.5 0-83.6-0.3-83.4-1.3 0.2-0.6 2.4-1.9 4.8-2.7 2.7-0.8 6.7-3.6 10.2-7 3.7-3.4 7-7.8 8.8-11.5 1.6-3.3 3.7-8.9 4.6-12.5 1.3-5 1.8-10.4 1.8-23 0-12.6-0.5-18-1.8-23-0.9-3.6-3-9.2-4.6-12.5-1.9-3.8-5.1-8.1-9-11.8-5-4.6-7.4-6.1-12.8-7.7-5.7-1.7-9.6-2-40.3-2v115h-28c-18 0-28-0.4-28-1 0-0.6 0.8-1.3 1.7-1.6 1-0.4 3.8-1.6 6.3-2.8 2.4-1.1 6.5-4.2 9-6.7 2.5-2.6 5.7-7.1 7.2-10 1.5-3 3.5-8.3 4.5-11.9 1.4-5.2 1.8-10.1 1.8-24-0.1-13.7-0.5-18.9-1.9-24-1-3.6-3-8.9-4.4-11.9-1.5-3-4.7-7.6-7.2-10.1-2.5-2.5-7.2-5.9-10.5-7.5-5.9-2.9-6.3-3-44.5-3.5v115h-29.5l0.5-115h-22.5l-11.5 43.5c-6.3 24-11.8 44.2-12.2 44.8-0.4 0.7-1 0.8-1.5 0.3-0.4-0.4-5.6-18.7-11.4-40.5-5.9-21.8-11.2-41.5-12.9-48.1h-21v115l-22.3-0.4c-15.3-0.3-24.4-0.9-29.2-2-3.8-0.9-10.6-2.8-15-4.2-4.4-1.5-11.2-4.2-15-6.1-3.8-1.9-10.8-6-15.5-9.1-4.7-3.1-12.4-9.5-17.1-14.2-4.7-4.7-10.9-11.9-13.8-16-2.9-4.1-7.3-11.4-9.7-16.3-2.4-4.8-5.7-12.6-7.4-17.4-1.6-4.9-3.6-13.1-4.4-18.3-0.9-5.2-1.6-14.4-1.6-20.5 0-6.1 0.7-15.3 1.6-20.5 0.8-5.2 2.8-13.4 4.4-18.3 1.7-4.8 5-12.6 7.4-17.4 2.4-4.9 6.8-12.2 9.7-16.3 2.9-4.1 9.1-11.3 13.8-16 4.8-4.7 12.5-11 17.1-14.1 4.7-3.1 11.2-7 14.5-8.7 3.3-1.6 9.8-4.3 14.5-6 4.7-1.6 12.1-3.7 16.5-4.5 4.4-0.9 9.6-1.8 11.5-2 1.9-0.2 7.6-0.4 12.5-0.5zm-70.5 34.9c-4 2.1-9.5 6.4-14.6 11.4-4.4 4.4-9.8 10.7-11.9 14-2.2 3.3-5.4 9.4-7.2 13.5-1.8 4.1-4.2 11.1-5.3 15.5-1.2 4.4-2.4 13.3-2.8 19.8-0.5 9.1-0.4 11.7 0.5 11.7 0.9 0 1.3-1.6 1.3-4.8 0-2.6 0.5-8.1 1-12.2 0.6-4.1 1.8-10.4 2.7-14 0.9-3.6 3-9.9 4.7-14 1.8-4.1 5.2-10.7 7.8-14.5 2.5-3.8 8.1-10.3 12.4-14.3 5-4.7 10.5-8.7 14.9-10.8 3.8-1.9 9.2-4 11.9-4.7 2.7-0.7 5.1-1.8 5.3-2.4 0.1-0.7-0.5-1.3-1.5-1.2-0.9 0-4.2 0.8-7.2 1.8-3 0.9-8.4 3.3-12 5.2zm211.5 5.3c-5.5 1.5-14.2 4.7-19.3 7.1-5 2.5-9.2 5-9.2 5.5 0 0.5 0.4 1 1 1 0.6 0 3.6-1.3 6.7-2.9 3.2-1.6 9.6-4.2 14.3-5.9 4.7-1.6 13-3.7 18.5-4.7 6.3-1 13.6-1.5 19.8-1.3 7.3 0.2 9.7 0 9.7-0.9 0-0.7-1.2-1.3-2.8-1.3-1.5 0-5-0.2-7.7-0.4-2.8-0.3-8.6-0.1-13 0.4-4.4 0.4-12.5 2-18 3.4zm250.4 179.3c0.5 1 3.2 4.6 6 8 2.8 3.5 7.2 7.7 9.8 9.3 2.7 1.7 5.6 3 6.5 3 1 0 1.8-0.3 1.8-0.8 0-0.4-1.5-1.5-3.5-2.5-1.9-0.9-5.4-3.4-7.8-5.6-2.3-2.1-5.8-6.4-7.9-9.5-2-3.1-3.9-5.6-4.2-5.6-0.3 0-0.7 0.4-1.1 1-0.3 0.6-0.1 1.8 0.4 2.7z"/>
	</g>
</svg>